<svg width="164" height="154" viewBox="0 0 164 154" fill="none" xmlns="http://www.w3.org/2000/svg">
<path d="M142.887 77.1885C137.362 75.0789 132.045 72.4744 127.005 69.4079C119.373 64.3041 115.412 66.4099 114.176 67.3021C111.059 68.6953 108.099 70.406 105.345 72.4059C104.929 72.7822 104.384 72.991 103.819 72.991C103.253 72.991 102.708 72.7822 102.292 72.4059C94.0423 65.5176 92.8066 61.6986 92.5159 59.807L104.436 52.6688C105.164 52.2769 105.711 51.6252 105.963 50.8486C106.544 49.3496 112.359 35.5729 113.231 32.5748C113.559 30.589 113.559 28.5645 113.231 26.5787C112.776 24.9351 111.781 23.4849 110.401 22.4525C109.022 21.4202 107.334 20.8633 105.599 20.8682C103.993 20.8697 102.416 21.286 101.025 22.0753C99.6344 22.8646 98.4797 23.9992 97.6766 25.3653L90.408 40.6767L78.8145 46.6728C78.4517 46.8551 78.1297 47.1069 77.8675 47.4134C77.6054 47.7199 77.4084 48.0748 77.2881 48.4573C77.0731 49.2618 77.1771 50.1164 77.5789 50.8486C77.6899 51.2063 77.8732 51.5383 78.1178 51.8249C78.3624 52.1114 78.6632 52.3467 79.0024 52.5166C79.3416 52.6865 79.7122 52.7875 80.092 52.8137C80.4719 52.8398 80.8532 52.7906 81.2132 52.6688C81.5403 52.6688 81.5403 52.3476 81.831 52.3476L94.6601 45.6734L96.1865 44.1744L103.201 28.5774C103.82 27.8261 104.677 27.2988 105.636 27.0784C106.871 27.0784 106.871 27.6852 106.871 28.2919C107.162 29.2709 107.162 30.311 106.871 31.29C106.544 32.789 103.491 40.5696 100.766 47.7792L88.5545 54.9174C88.2166 54.9634 87.8973 55.0967 87.6291 55.3036C87.361 55.5106 87.1535 55.7837 87.0281 56.0952C86.1206 58.3048 86.1206 60.7739 87.0281 62.9835C89.5422 68.5831 93.4245 73.4868 98.3308 77.2599C99.9118 78.5548 101.905 79.2641 103.964 79.2641C106.023 79.2641 108.016 78.5548 109.597 77.2599L117.229 73.0484H117.847C119.826 73.2912 121.712 74.015 123.335 75.1541C128.771 78.3731 134.502 81.0856 140.452 83.256C140.652 83.559 140.782 83.9015 140.832 84.2592C140.883 84.617 140.852 84.9812 140.743 85.3261C140.452 86.8251 139.835 86.5396 139.544 86.5396C136.63 85.608 133.856 84.2998 131.294 82.6492C121.518 75.7609 117.229 76.9387 115.703 77.2599L102.292 84.1483C101.43 84.5531 100.658 85.1209 100.02 85.8191C99.3813 86.5173 98.8894 87.3323 98.5721 88.2174C98.2548 89.1025 98.1183 90.0403 98.1705 90.9773C98.2226 91.9142 98.4623 92.8319 98.8759 93.6777C101.347 97.2468 121.481 109.239 121.481 109.239C122.28 110.167 122.718 111.343 122.717 112.558C121.146 112.708 119.566 112.397 118.174 111.666L87.9366 91.572C82.4216 86.4588 78.5015 79.9105 76.6339 72.6915C76.4902 71.3053 76.034 69.968 75.2985 68.7766C74.563 67.5851 73.5667 66.5694 72.3818 65.8031C71.4811 65.1205 70.4298 64.6552 69.3125 64.4444C68.1952 64.2336 67.0432 64.2834 65.9491 64.5896C61.6878 65.204 57.8063 67.3387 55.0462 70.5857C54.8477 70.7832 54.6909 71.0174 54.5849 71.2746C54.4788 71.5319 54.4256 71.8072 54.4283 72.0847C54.0738 76.1228 54.4929 80.1904 55.664 84.0769C56.0217 85.1495 56.2176 86.2678 56.2455 87.3961V89.7874H55.0462C53.5273 87.8036 52.722 85.3808 52.7565 82.8991L51.2301 70.0146C51.3752 68.7188 52.0267 67.5289 53.0473 66.6954C57.9001 64.6668 62.5896 62.2806 67.0757 59.5572L84.7021 51.0627C85.1326 50.9378 85.5244 50.7091 85.8418 50.3974C86.1592 50.0857 86.3921 49.7009 86.5193 49.2782C86.738 48.474 86.6339 47.618 86.2285 46.8869C86.1175 46.5292 85.9342 46.1972 85.6896 45.9106C85.445 45.6241 85.1441 45.3888 84.8049 45.2189C84.4657 45.049 84.0952 44.948 83.7154 44.9218C83.3355 44.8957 82.9542 44.9449 82.5942 45.0667C82.2671 45.0667 82.2671 45.3879 81.9764 45.3879L63.4778 54.7389L50.6486 60.735C48.978 61.6738 47.5903 63.0302 46.6264 64.6664C45.6625 66.3025 45.1569 68.1601 45.1608 70.0503L46.6873 83.2203C46.941 87.5714 48.9092 91.6548 52.1751 94.6057C52.7576 95.071 53.4372 95.405 54.1657 95.5838C54.8942 95.7627 55.6538 95.7821 56.3909 95.6407C57.4871 95.496 58.5408 95.1294 59.4854 94.5642C60.43 93.999 61.245 93.2475 61.8786 92.3572C62.3412 91.7112 62.6388 90.9654 62.7463 90.1827C62.8539 89.4 62.7682 88.6034 62.4965 87.8601C62.4364 86.0386 62.2298 84.2246 61.8786 82.4351C61.1597 79.4855 60.7457 76.4722 60.643 73.441C62.6311 71.9797 64.8902 70.9129 67.2938 70.3002H68.8202C70.0195 70.9069 70.3466 72.6915 70.6373 73.2982C72.5167 81.888 77.0625 89.6941 83.6482 95.6407L114.794 116.627C116.999 117.913 119.5 118.625 122.063 118.697H124.498C125.355 118.536 126.149 118.143 126.791 117.563C127.433 116.983 127.897 116.239 128.132 115.414C128.984 113.637 129.235 111.641 128.849 109.714C128.463 107.788 127.461 106.033 125.988 104.706C118.82 100.458 111.882 95.8474 105.2 90.8938L105.817 90.2871L118.029 84.0055C121.55 84.7208 124.842 86.2639 127.623 88.5026C131.087 90.9725 135.035 92.7103 139.217 93.6064C141.177 93.4961 143.038 92.7262 144.488 91.426C145.937 90.1259 146.887 88.3751 147.176 86.4682C147.522 85.5941 147.69 84.6615 147.669 83.7238C147.649 82.786 147.44 81.8615 147.055 81.003C146.67 80.1445 146.117 79.3688 145.427 78.7205C144.737 78.0721 143.923 77.5636 143.033 77.2242L142.887 77.1885Z" fill="#FEE856"/>
<path d="M66.8589 46.3156C69.5759 46.3156 72.232 45.5244 74.4911 44.0419C76.7503 42.5595 78.5111 40.4525 79.5508 37.9873C80.5906 35.5221 80.8627 32.8095 80.3326 30.1924C79.8025 27.5754 78.4941 25.1715 76.5729 23.2847C74.6516 21.398 72.2038 20.113 69.539 19.5925C66.8741 19.0719 64.1119 19.3391 61.6017 20.3602C59.0915 21.3813 56.9459 23.1105 55.4364 25.3291C53.9269 27.5478 53.1212 30.1561 53.1212 32.8244V33.11C53.2246 36.6295 54.7141 39.9725 57.2763 42.4355C59.8385 44.8984 63.2736 46.2894 66.8589 46.3156ZM66.8589 25.9361C68.2965 25.9361 69.7018 26.3547 70.8971 27.1391C72.0924 27.9234 73.0241 29.0383 73.5742 30.3426C74.1243 31.6469 74.2683 33.0822 73.9878 34.4669C73.7074 35.8515 73.0151 37.1235 71.9986 38.1217C70.982 39.12 69.6869 39.7999 68.2769 40.0753C66.8669 40.3507 65.4055 40.2094 64.0773 39.6691C62.7491 39.1288 61.6139 38.2139 60.8152 37.04C60.0166 35.8662 59.5903 34.4861 59.5903 33.0743C59.5903 31.1811 60.3561 29.3655 61.7192 28.0268C63.0823 26.6881 64.9311 25.9361 66.8589 25.9361Z" fill="#FEE856"/>
<path d="M32.3692 110.773L76.3443 114.343C77.1648 114.288 77.9422 113.962 78.5495 113.417C79.1569 112.873 79.5582 112.142 79.6879 111.344C79.6376 110.461 79.2768 109.623 78.667 108.972C78.0572 108.321 77.2363 107.898 76.3443 107.775L32.7326 104.206L30.5884 104.813C29.9063 105.49 29.3851 106.306 29.062 107.204C29.1786 108.029 29.6067 108.781 30.2613 109.31C30.4262 109.731 30.7144 110.095 31.0896 110.355C31.4647 110.616 31.91 110.761 32.3692 110.773Z" fill="#FEE856"/>
<path d="M63.6604 128.155L19.6853 124.586L17.5774 125.193C17.2165 125.522 16.9273 125.919 16.7274 126.361C16.5275 126.802 16.421 127.279 16.4145 127.763C16.3021 128.135 16.3005 128.531 16.41 128.904C16.5195 129.277 16.7354 129.612 17.0323 129.868C17.2803 130.21 17.6001 130.495 17.9701 130.704C18.34 130.913 18.7515 131.042 19.1765 131.082L63.1153 134.651C63.8846 134.729 64.6559 134.524 65.2802 134.075C65.9045 133.627 66.3374 132.968 66.4952 132.224V131.939C66.6208 131.12 66.4127 130.287 65.9159 129.618C65.4191 128.95 64.6739 128.501 63.8421 128.369L63.6604 128.155Z" fill="#FEE856"/>
<path d="M112.65 121.552L41.854 115.556C41.4256 115.419 40.9666 115.403 40.5295 115.511C40.0925 115.618 39.695 115.844 39.3827 116.163C38.8897 116.552 38.5221 117.073 38.3245 117.663C38.1268 118.253 38.1076 118.887 38.2691 119.487C38.4306 120.088 38.766 120.629 39.2345 121.047C39.7031 121.464 40.2847 121.739 40.9091 121.838L112.069 127.762C112.889 127.708 113.667 127.382 114.274 126.837C114.881 126.293 115.283 125.562 115.412 124.764C115.519 124.366 115.526 123.948 115.434 123.545C115.341 123.143 115.151 122.769 114.881 122.454C114.61 122.139 114.266 121.893 113.878 121.736C113.489 121.579 113.068 121.516 112.65 121.552Z" fill="#FEE856"/>
</svg>
